<mxfile host="app.diagrams.net" modified="2023-07-27T15:17:34.477Z" agent="Mozilla/5.0 (Windows NT 10.0; Win64; x64) AppleWebKit/537.36 (KHTML, like Gecko) Chrome/115.0.0.0 Safari/537.36" version="21.6.5" etag="V3uv1rxFGeWd7-P6IYEe" type="github">
  <diagram name="第 1 页" id="XW76mF7Vm7qFW0OTVpSF">
    <mxGraphModel>
      <root>
        <mxCell id="0" />
        <mxCell id="1" parent="0" />
      </root>
    </mxGraphModel>
  </diagram>
</mxfile>
